<mxfile host="app.diagrams.net" agent="Mozilla/5.0 (Windows NT 10.0; Win64; x64) AppleWebKit/537.36 (KHTML, like Gecko) Chrome/137.0.0.0 Safari/537.36" version="27.1.6">
  <diagram name="Page-1" id="BS7Bbrs7ymMwa2Q5e2H5">
    <mxGraphModel dx="513" dy="1909" grid="1" gridSize="10" guides="1" tooltips="1" connect="1" arrows="1" fold="1" page="1" pageScale="1" pageWidth="850" pageHeight="1100" background="#ffffff" math="0" shadow="1">
      <root>
        <mxCell id="0" />
        <mxCell id="1" parent="0" />
        <mxCell id="ulDUIKMdiSjUYoQUl0aS-8" value="&lt;div&gt;&lt;br&gt;&lt;/div&gt;&lt;div&gt;&lt;br&gt;&lt;/div&gt;&lt;div&gt;&lt;br&gt;&lt;/div&gt;" style="strokeWidth=1;shadow=0;dashed=0;align=center;html=1;shape=mxgraph.mockup.containers.browserWindow;rSize=0;strokeColor=#666666;strokeColor2=#008cff;strokeColor3=#c4c4c4;mainText=,;recursiveResize=0;movable=1;resizable=1;rotatable=1;deletable=1;editable=1;locked=0;connectable=1;fontSize=15;" vertex="1" parent="1">
          <mxGeometry x="120" y="-960" width="600" height="2910" as="geometry" />
        </mxCell>
        <mxCell id="ulDUIKMdiSjUYoQUl0aS-18" value="" style="rounded=0;whiteSpace=wrap;html=1;" vertex="1" parent="ulDUIKMdiSjUYoQUl0aS-8">
          <mxGeometry x="15" y="110.25" width="570" height="59.5" as="geometry" />
        </mxCell>
        <mxCell id="ulDUIKMdiSjUYoQUl0aS-9" value="Page 1" style="strokeWidth=1;shadow=0;dashed=0;align=center;html=1;shape=mxgraph.mockup.containers.anchor;fontSize=17;fontColor=#666666;align=left;whiteSpace=wrap;" vertex="1" parent="ulDUIKMdiSjUYoQUl0aS-8">
          <mxGeometry x="60" y="12" width="110" height="26" as="geometry" />
        </mxCell>
        <mxCell id="ulDUIKMdiSjUYoQUl0aS-10" value="https://www.draw.io" style="strokeWidth=1;shadow=0;dashed=0;align=center;html=1;shape=mxgraph.mockup.containers.anchor;rSize=0;fontSize=17;fontColor=#666666;align=left;" vertex="1" parent="ulDUIKMdiSjUYoQUl0aS-8">
          <mxGeometry x="130" y="60" width="250" height="26" as="geometry" />
        </mxCell>
        <mxCell id="ulDUIKMdiSjUYoQUl0aS-14" value="" style="whiteSpace=wrap;html=1;aspect=fixed;" vertex="1" parent="ulDUIKMdiSjUYoQUl0aS-8">
          <mxGeometry x="23" y="120" width="40" height="40" as="geometry" />
        </mxCell>
        <mxCell id="ulDUIKMdiSjUYoQUl0aS-13" value="&lt;i&gt;The Zen Den&lt;/i&gt;" style="text;html=1;align=center;verticalAlign=middle;whiteSpace=wrap;rounded=0;fontStyle=1;fontSize=20;" vertex="1" parent="ulDUIKMdiSjUYoQUl0aS-8">
          <mxGeometry x="55" y="121.25" width="155" height="37.5" as="geometry" />
        </mxCell>
        <mxCell id="ulDUIKMdiSjUYoQUl0aS-15" value="Logo" style="text;html=1;align=center;verticalAlign=middle;whiteSpace=wrap;rounded=0;" vertex="1" parent="ulDUIKMdiSjUYoQUl0aS-8">
          <mxGeometry x="15" y="125" width="60" height="30" as="geometry" />
        </mxCell>
        <mxCell id="ulDUIKMdiSjUYoQUl0aS-20" value="&lt;font&gt;Services | Wellness Nook | Book Today&amp;nbsp;&amp;nbsp;&lt;/font&gt;" style="text;html=1;align=center;verticalAlign=middle;whiteSpace=wrap;rounded=0;fontSize=15;" vertex="1" parent="ulDUIKMdiSjUYoQUl0aS-8">
          <mxGeometry x="240" y="125" width="380" height="30" as="geometry" />
        </mxCell>
        <mxCell id="ulDUIKMdiSjUYoQUl0aS-25" value="&lt;h1 style=&quot;text-align: center; margin-top: 0px;&quot;&gt;&lt;i style=&quot;background-color: transparent; color: light-dark(rgb(0, 0, 0), rgb(255, 255, 255)); font-weight: normal; font-size: 25px;&quot;&gt;Relax. Revitalize. Refresh&lt;/i&gt;&lt;/h1&gt;&lt;h1 style=&quot;text-align: center; margin-top: 0px;&quot;&gt;&lt;span style=&quot;font-weight: 400;&quot;&gt;&lt;font style=&quot;font-size: 17px;&quot;&gt;At The Zen Den, our purpose is to rejuvinate the body and mind, while providing exceptional service.&lt;/font&gt;&lt;/span&gt;&lt;/h1&gt;" style="text;html=1;whiteSpace=wrap;overflow=hidden;rounded=0;" vertex="1" parent="ulDUIKMdiSjUYoQUl0aS-8">
          <mxGeometry x="15.5" y="472" width="569" height="130" as="geometry" />
        </mxCell>
        <mxCell id="ulDUIKMdiSjUYoQUl0aS-26" value="&lt;i style=&quot;&quot;&gt;&lt;font style=&quot;font-size: 25px;&quot;&gt;&lt;u&gt;Spa Menu&lt;/u&gt;&lt;/font&gt;&lt;/i&gt;" style="text;html=1;whiteSpace=wrap;overflow=hidden;rounded=0;align=center;" vertex="1" parent="ulDUIKMdiSjUYoQUl0aS-8">
          <mxGeometry x="20" y="630" width="560" height="40" as="geometry" />
        </mxCell>
        <mxCell id="ulDUIKMdiSjUYoQUl0aS-27" value="" style="verticalLabelPosition=bottom;shadow=0;dashed=0;align=center;html=1;verticalAlign=top;strokeWidth=1;shape=mxgraph.mockup.graphics.simpleIcon;strokeColor=#999999;" vertex="1" parent="ulDUIKMdiSjUYoQUl0aS-8">
          <mxGeometry x="20" y="680" width="162" height="150" as="geometry" />
        </mxCell>
        <mxCell id="ulDUIKMdiSjUYoQUl0aS-28" value="" style="verticalLabelPosition=bottom;shadow=0;dashed=0;align=center;html=1;verticalAlign=top;strokeWidth=1;shape=mxgraph.mockup.graphics.simpleIcon;strokeColor=#999999;" vertex="1" parent="ulDUIKMdiSjUYoQUl0aS-8">
          <mxGeometry x="219" y="680" width="162" height="150" as="geometry" />
        </mxCell>
        <mxCell id="ulDUIKMdiSjUYoQUl0aS-29" value="" style="verticalLabelPosition=bottom;shadow=0;dashed=0;align=center;html=1;verticalAlign=top;strokeWidth=1;shape=mxgraph.mockup.graphics.simpleIcon;strokeColor=#999999;" vertex="1" parent="ulDUIKMdiSjUYoQUl0aS-8">
          <mxGeometry x="418" y="680" width="162" height="150" as="geometry" />
        </mxCell>
        <mxCell id="ulDUIKMdiSjUYoQUl0aS-89" value="&lt;span style=&quot;font-size: 17px;&quot;&gt;&lt;u&gt;Aromatherapy&lt;/u&gt;&lt;/span&gt;&lt;div&gt;&lt;div&gt;&lt;br&gt;&lt;/div&gt;&lt;div&gt;&lt;div style=&quot;line-height: 10.8px;&quot;&gt;&lt;h1 style=&quot;margin-top: 0px; line-height: 21.6px;&quot;&gt;&lt;span style=&quot;font-weight: 400;&quot;&gt;&lt;font style=&quot;font-size: 12px; line-height: 10.8px;&quot;&gt;Lavender Relaxation - $55&lt;/font&gt;&lt;/span&gt;&lt;/h1&gt;&lt;h1 style=&quot;margin-top: 0px; line-height: 21.6px;&quot;&gt;&lt;span style=&quot;background-color: transparent; color: light-dark(rgb(0, 0, 0), rgb(255, 255, 255)); font-weight: 400;&quot;&gt;&lt;font style=&quot;font-size: 12px; line-height: 10.8px;&quot;&gt;Citrus Energy Boost - $55&lt;/font&gt;&lt;/span&gt;&lt;/h1&gt;&lt;h1 style=&quot;margin-top: 0px; line-height: 21.6px;&quot;&gt;&lt;span style=&quot;font-size: 12px; background-color: transparent; color: light-dark(rgb(0, 0, 0), rgb(255, 255, 255)); font-weight: normal;&quot;&gt;Rose Renewal - $55&lt;/span&gt;&lt;/h1&gt;&lt;h1 style=&quot;margin-top: 0px; line-height: 21.6px;&quot;&gt;&lt;span style=&quot;background-color: transparent; color: light-dark(rgb(0, 0, 0), rgb(255, 255, 255)); font-size: 12px; font-weight: normal;&quot;&gt;Calming Chamomile - $5&lt;/span&gt;&lt;/h1&gt;&lt;div&gt;&lt;span style=&quot;background-color: transparent; color: light-dark(rgb(0, 0, 0), rgb(255, 255, 255));&quot;&gt;Tea Tree Purify - $55&lt;/span&gt;&lt;/div&gt;&lt;div&gt;&lt;span style=&quot;background-color: transparent; color: light-dark(rgb(0, 0, 0), rgb(255, 255, 255));&quot;&gt;&lt;br&gt;&lt;/span&gt;&lt;/div&gt;&lt;/div&gt;&lt;/div&gt;&lt;/div&gt;" style="text;html=1;align=center;verticalAlign=middle;whiteSpace=wrap;rounded=0;" vertex="1" parent="ulDUIKMdiSjUYoQUl0aS-8">
          <mxGeometry x="420" y="825" width="160" height="270" as="geometry" />
        </mxCell>
        <mxCell id="ulDUIKMdiSjUYoQUl0aS-90" value="&lt;h1 style=&quot;margin-top: 0px;&quot;&gt;&lt;div style=&quot;font-size: 12px;&quot;&gt;&lt;u style=&quot;background-color: transparent; color: light-dark(rgb(0, 0, 0), rgb(255, 255, 255)); font-size: 17px; font-weight: normal;&quot;&gt;Massages&lt;/u&gt;&lt;/div&gt;&lt;div style=&quot;font-size: 12px;&quot;&gt;&lt;span style=&quot;background-color: transparent; color: light-dark(rgb(0, 0, 0), rgb(255, 255, 255)); font-size: 17px; font-weight: normal;&quot;&gt;&lt;u&gt;&lt;br&gt;&lt;/u&gt;&lt;/span&gt;&lt;/div&gt;&lt;div style=&quot;font-size: 12px;&quot;&gt;&lt;span style=&quot;background-color: transparent; color: light-dark(rgb(0, 0, 0), rgb(255, 255, 255)); font-weight: normal;&quot;&gt;Swedish Massage - $60&lt;/span&gt;&lt;/div&gt;&lt;div style=&quot;font-size: 12px;&quot;&gt;&lt;span style=&quot;background-color: transparent; color: light-dark(rgb(0, 0, 0), rgb(255, 255, 255)); font-weight: normal;&quot;&gt;&lt;br&gt;&lt;/span&gt;&lt;/div&gt;&lt;div style=&quot;font-size: 12px; line-height: 10.8px;&quot;&gt;&lt;div style=&quot;&quot;&gt;&lt;span style=&quot;font-weight: normal;&quot;&gt;Deep Tissue Massage - $60&lt;/span&gt;&lt;/div&gt;&lt;div style=&quot;&quot;&gt;&lt;span style=&quot;font-weight: normal;&quot;&gt;&lt;br&gt;&lt;/span&gt;&lt;/div&gt;&lt;div style=&quot;&quot;&gt;&lt;span style=&quot;font-weight: normal;&quot;&gt;&lt;br&gt;&lt;/span&gt;&lt;/div&gt;&lt;div style=&quot;&quot;&gt;&lt;span style=&quot;font-weight: normal;&quot;&gt;Hot Stone Massage - $60&lt;/span&gt;&lt;/div&gt;&lt;div style=&quot;&quot;&gt;&lt;span style=&quot;font-weight: normal;&quot;&gt;&lt;br&gt;&lt;/span&gt;&lt;/div&gt;&lt;div style=&quot;&quot;&gt;&lt;span style=&quot;font-weight: normal;&quot;&gt;&lt;br&gt;&lt;/span&gt;&lt;/div&gt;&lt;div style=&quot;&quot;&gt;&lt;span style=&quot;font-weight: normal;&quot;&gt;Aromatherapy Massage - $60&lt;/span&gt;&lt;/div&gt;&lt;div style=&quot;&quot;&gt;&lt;span style=&quot;font-weight: normal;&quot;&gt;&lt;br&gt;&lt;/span&gt;&lt;/div&gt;&lt;div style=&quot;&quot;&gt;&lt;span style=&quot;font-weight: normal;&quot;&gt;&lt;br&gt;&lt;/span&gt;&lt;/div&gt;&lt;div style=&quot;&quot;&gt;&lt;span style=&quot;font-weight: normal;&quot;&gt;Reflexology - $60&lt;/span&gt;&lt;/div&gt;&lt;/div&gt;&lt;/h1&gt;" style="text;html=1;whiteSpace=wrap;overflow=hidden;rounded=0;align=center;" vertex="1" parent="ulDUIKMdiSjUYoQUl0aS-8">
          <mxGeometry x="210" y="840" width="180" height="230" as="geometry" />
        </mxCell>
        <mxCell id="ulDUIKMdiSjUYoQUl0aS-91" value="&lt;h1 style=&quot;margin-top: 0px;&quot;&gt;&lt;font style=&quot;font-size: 17px;&quot;&gt;&lt;u style=&quot;font-weight: normal;&quot;&gt;Facials&lt;/u&gt;&lt;/font&gt;&lt;/h1&gt;&lt;h1 style=&quot;margin-top: 0px;&quot;&gt;&lt;span style=&quot;font-size: 12px; background-color: transparent; color: light-dark(rgb(0, 0, 0), rgb(255, 255, 255)); font-weight: normal;&quot;&gt;Brightening Facial - $45&lt;/span&gt;&lt;/h1&gt;&lt;h1 style=&quot;margin-top: 0px; line-height: 21.6px;&quot;&gt;&lt;span style=&quot;background-color: transparent; color: light-dark(rgb(0, 0, 0), rgb(255, 255, 255)); font-weight: normal;&quot;&gt;&lt;font style=&quot;line-height: 10.8px; font-size: 12px;&quot;&gt;Hydrating Facial - $45&lt;/font&gt;&lt;/span&gt;&lt;/h1&gt;&lt;h1 style=&quot;margin-top: 0px; line-height: 21.6px;&quot;&gt;&lt;span style=&quot;background-color: transparent; color: light-dark(rgb(0, 0, 0), rgb(255, 255, 255)); font-weight: normal;&quot;&gt;&lt;font style=&quot;line-height: 10.8px; font-size: 12px;&quot;&gt;Acne Treatment Facial - $45&lt;/font&gt;&lt;/span&gt;&lt;/h1&gt;&lt;h1 style=&quot;margin-top: 0px; line-height: 21.6px;&quot;&gt;&lt;span style=&quot;background-color: transparent; color: light-dark(rgb(0, 0, 0), rgb(255, 255, 255)); font-weight: normal;&quot;&gt;&lt;font style=&quot;line-height: 10.8px; font-size: 12px;&quot;&gt;Collagen Boost Facial - $45&lt;/font&gt;&lt;/span&gt;&lt;/h1&gt;&lt;h1 style=&quot;margin-top: 0px;&quot;&gt;&lt;div style=&quot;line-height: 10.8px;&quot;&gt;&lt;span style=&quot;background-color: transparent; color: light-dark(rgb(0, 0, 0), rgb(255, 255, 255)); font-weight: normal;&quot;&gt;&lt;font style=&quot;font-size: 12px;&quot;&gt;Anti-Aging Facial - $45&lt;/font&gt;&lt;/span&gt;&lt;/div&gt;&lt;/h1&gt;" style="text;html=1;whiteSpace=wrap;overflow=hidden;rounded=0;align=center;" vertex="1" parent="ulDUIKMdiSjUYoQUl0aS-8">
          <mxGeometry x="20" y="835" width="162" height="240" as="geometry" />
        </mxCell>
        <mxCell id="ulDUIKMdiSjUYoQUl0aS-65" value="Book Now!" style="strokeWidth=1;shadow=0;dashed=0;align=center;html=1;shape=mxgraph.mockup.buttons.button;strokeColor=#666666;fontColor=#ffffff;mainText=;buttonStyle=round;fontSize=17;fontStyle=1;fillColor=#008cff;whiteSpace=wrap;" vertex="1" parent="ulDUIKMdiSjUYoQUl0aS-8">
          <mxGeometry x="219" y="1110" width="150" height="30" as="geometry" />
        </mxCell>
        <mxCell id="ulDUIKMdiSjUYoQUl0aS-66" value="" style="verticalLabelPosition=bottom;shadow=0;dashed=0;align=center;html=1;verticalAlign=top;strokeWidth=1;shape=mxgraph.mockup.forms.splitter;strokeColor=#999999;" vertex="1" parent="ulDUIKMdiSjUYoQUl0aS-8">
          <mxGeometry x="-2" y="1180" width="602" height="10" as="geometry" />
        </mxCell>
        <mxCell id="ulDUIKMdiSjUYoQUl0aS-22" value="" style="verticalLabelPosition=bottom;shadow=0;dashed=0;align=center;html=1;verticalAlign=top;strokeWidth=1;shape=mxgraph.mockup.graphics.simpleIcon;strokeColor=#999999;" vertex="1" parent="ulDUIKMdiSjUYoQUl0aS-8">
          <mxGeometry x="15" y="169.75" width="570" height="290" as="geometry" />
        </mxCell>
        <mxCell id="ulDUIKMdiSjUYoQUl0aS-64" value="&lt;h1 style=&quot;margin-top: 0px;&quot;&gt;&lt;span style=&quot;font-weight: 400;&quot;&gt;&lt;i&gt;&lt;u&gt;&lt;font style=&quot;font-size: 25px;&quot;&gt;Testimonials&lt;/font&gt;&lt;/u&gt;&lt;/i&gt;&lt;/span&gt;&lt;/h1&gt;&lt;h1 style=&quot;margin-top: 0px;&quot;&gt;&lt;br&gt;&lt;/h1&gt;" style="text;html=1;whiteSpace=wrap;overflow=hidden;rounded=0;align=center;" vertex="1" parent="ulDUIKMdiSjUYoQUl0aS-8">
          <mxGeometry x="16" y="1576" width="570" height="44" as="geometry" />
        </mxCell>
        <mxCell id="ulDUIKMdiSjUYoQUl0aS-93" value="" style="verticalLabelPosition=bottom;shadow=0;dashed=0;align=center;html=1;verticalAlign=top;strokeWidth=1;shape=mxgraph.mockup.forms.splitter;strokeColor=#999999;" vertex="1" parent="ulDUIKMdiSjUYoQUl0aS-8">
          <mxGeometry x="-1" y="1546" width="602" height="10" as="geometry" />
        </mxCell>
        <mxCell id="ulDUIKMdiSjUYoQUl0aS-94" value="The Wellness Nook" style="text;html=1;align=center;verticalAlign=middle;whiteSpace=wrap;rounded=0;fontSize=24;fontStyle=6" vertex="1" parent="ulDUIKMdiSjUYoQUl0aS-8">
          <mxGeometry x="11" y="1228" width="580" height="30" as="geometry" />
        </mxCell>
        <mxCell id="ulDUIKMdiSjUYoQUl0aS-108" value="&lt;span style=&quot;font-size: 17px;&quot;&gt;&lt;i&gt;The Secret to Radiant Skin&lt;/i&gt;&lt;/span&gt;&lt;div&gt;&lt;br&gt;&lt;/div&gt;&lt;div&gt;&lt;div&gt;&lt;i style=&quot;text-align: left;&quot;&gt;&lt;font style=&quot;font-size: 13px;&quot;&gt;Lorem ipsum dolor sit amet, consectetur adipisicing elit, sed do eiusmod tempor incididunt ut labore et dolore magna aliqua.&lt;/font&gt;&lt;/i&gt;&lt;span style=&quot;font-size: 17px;&quot;&gt;&lt;i&gt;&lt;/i&gt;&lt;/span&gt;&lt;i style=&quot;background-color: transparent; color: light-dark(rgb(0, 0, 0), rgb(255, 255, 255)); text-align: left;&quot;&gt;&lt;font style=&quot;font-size: 13px;&quot;&gt;Lorem ipsum dolor sit amet, consectetur adipisicing elit, sed do eiusmod tempor incididunt ut labore et dolore magna aliqua.&lt;/font&gt;&lt;/i&gt;&lt;/div&gt;&lt;/div&gt;" style="text;html=1;align=center;verticalAlign=middle;whiteSpace=wrap;rounded=0;" vertex="1" parent="ulDUIKMdiSjUYoQUl0aS-8">
          <mxGeometry x="75" y="1270" width="220" height="240" as="geometry" />
        </mxCell>
        <mxCell id="ulDUIKMdiSjUYoQUl0aS-110" value="&lt;span style=&quot;font-size: 17px;&quot;&gt;&lt;i&gt;Wind Down Naturally&lt;/i&gt;&lt;/span&gt;&lt;br&gt;&lt;div&gt;&lt;br&gt;&lt;/div&gt;&lt;div&gt;&lt;div&gt;&lt;i style=&quot;text-align: left;&quot;&gt;&lt;font style=&quot;font-size: 13px;&quot;&gt;Lorem ipsum dolor sit amet, consectetur adipisicing elit, sed do eiusmod tempor incididunt ut labore et dolore magna aliqua.&lt;/font&gt;&lt;/i&gt;&lt;span style=&quot;font-size: 17px;&quot;&gt;&lt;i&gt;&lt;/i&gt;&lt;/span&gt;&lt;i style=&quot;background-color: transparent; color: light-dark(rgb(0, 0, 0), rgb(255, 255, 255)); text-align: left;&quot;&gt;&lt;font style=&quot;font-size: 13px;&quot;&gt;Lorem ipsum dolor sit amet, consectetur adipisicing elit, sed do eiusmod tempor incididunt ut labore et dolore magna aliqua.&lt;/font&gt;&lt;/i&gt;&lt;/div&gt;&lt;/div&gt;" style="text;html=1;align=center;verticalAlign=middle;whiteSpace=wrap;rounded=0;" vertex="1" parent="ulDUIKMdiSjUYoQUl0aS-8">
          <mxGeometry x="320" y="1270" width="220" height="240" as="geometry" />
        </mxCell>
        <mxCell id="ulDUIKMdiSjUYoQUl0aS-112" value="" style="verticalLabelPosition=bottom;shadow=0;dashed=0;align=center;html=1;verticalAlign=top;strokeWidth=1;shape=mxgraph.mockup.forms.splitter;strokeColor=#999999;" vertex="1" parent="ulDUIKMdiSjUYoQUl0aS-8">
          <mxGeometry x="-7" y="602" width="602" height="10" as="geometry" />
        </mxCell>
        <mxCell id="ulDUIKMdiSjUYoQUl0aS-144" value="&lt;h1 style=&quot;text-align: center; margin-top: 0px;&quot;&gt;&lt;span style=&quot;background-color: transparent; color: light-dark(rgb(0, 0, 0), rgb(255, 255, 255)); font-weight: normal;&quot;&gt;&lt;font style=&quot;font-size: 17px;&quot;&gt;The Most Relaxing Experience&lt;/font&gt;&lt;/span&gt;&lt;/h1&gt;&lt;h1 style=&quot;text-align: center; margin-top: 0px;&quot;&gt;&lt;span style=&quot;background-color: transparent; color: light-dark(rgb(0, 0, 0), rgb(255, 255, 255)); font-size: 12px; font-weight: normal;&quot;&gt;Lorem ipsum dolor sit amet, consectetur adipisicing elit, sed do eiusmod tempor incididunt ut labore et dolore magna aliqua.&lt;/span&gt;&lt;/h1&gt;" style="text;html=1;whiteSpace=wrap;overflow=hidden;rounded=0;" vertex="1" parent="ulDUIKMdiSjUYoQUl0aS-8">
          <mxGeometry x="23" y="1640" width="260" height="160" as="geometry" />
        </mxCell>
        <mxCell id="ulDUIKMdiSjUYoQUl0aS-145" value="&lt;h1 style=&quot;margin-top: 0px;&quot;&gt;&lt;span style=&quot;font-size: 17px; font-weight: 400;&quot;&gt;Excellent Spa&lt;/span&gt;&lt;/h1&gt;&lt;h1 style=&quot;margin-top: 0px;&quot;&gt;&lt;span style=&quot;background-color: transparent; color: light-dark(rgb(0, 0, 0), rgb(255, 255, 255)); font-size: 12px; font-weight: normal;&quot;&gt;Lorem ipsum dolor sit amet, consectetur adipisicing elit, sed do eiusmod tempor incididunt ut labore et dolore magna aliqua.&lt;/span&gt;&lt;/h1&gt;" style="text;html=1;whiteSpace=wrap;overflow=hidden;rounded=0;align=center;" vertex="1" parent="ulDUIKMdiSjUYoQUl0aS-8">
          <mxGeometry x="320" y="1640" width="260" height="160" as="geometry" />
        </mxCell>
        <mxCell id="ulDUIKMdiSjUYoQUl0aS-169" value="" style="group" vertex="1" connectable="0" parent="ulDUIKMdiSjUYoQUl0aS-8">
          <mxGeometry x="369" y="1800" width="180" height="30" as="geometry" />
        </mxCell>
        <mxCell id="ulDUIKMdiSjUYoQUl0aS-162" value="" style="verticalLabelPosition=bottom;verticalAlign=top;html=1;shape=mxgraph.basic.star" vertex="1" parent="ulDUIKMdiSjUYoQUl0aS-169">
          <mxGeometry width="34.44976076555023" height="30" as="geometry" />
        </mxCell>
        <mxCell id="ulDUIKMdiSjUYoQUl0aS-163" value="" style="verticalLabelPosition=bottom;verticalAlign=top;html=1;shape=mxgraph.basic.star" vertex="1" parent="ulDUIKMdiSjUYoQUl0aS-169">
          <mxGeometry x="109.55023923444975" width="34.44976076555023" height="30" as="geometry" />
        </mxCell>
        <mxCell id="ulDUIKMdiSjUYoQUl0aS-164" value="" style="verticalLabelPosition=bottom;verticalAlign=top;html=1;shape=mxgraph.basic.star" vertex="1" parent="ulDUIKMdiSjUYoQUl0aS-169">
          <mxGeometry x="73.0334928229665" width="34.44976076555023" height="30" as="geometry" />
        </mxCell>
        <mxCell id="ulDUIKMdiSjUYoQUl0aS-165" value="" style="verticalLabelPosition=bottom;verticalAlign=top;html=1;shape=mxgraph.basic.star" vertex="1" parent="ulDUIKMdiSjUYoQUl0aS-169">
          <mxGeometry x="36.51674641148325" width="34.44976076555023" height="30" as="geometry" />
        </mxCell>
        <mxCell id="ulDUIKMdiSjUYoQUl0aS-168" value="" style="verticalLabelPosition=bottom;verticalAlign=top;html=1;shape=mxgraph.basic.star" vertex="1" parent="ulDUIKMdiSjUYoQUl0aS-169">
          <mxGeometry x="145.55023923444972" width="34.44976076555023" height="30" as="geometry" />
        </mxCell>
        <mxCell id="ulDUIKMdiSjUYoQUl0aS-181" value="" style="group" vertex="1" connectable="0" parent="ulDUIKMdiSjUYoQUl0aS-8">
          <mxGeometry x="63" y="1800" width="180" height="30" as="geometry" />
        </mxCell>
        <mxCell id="ulDUIKMdiSjUYoQUl0aS-182" value="" style="verticalLabelPosition=bottom;verticalAlign=top;html=1;shape=mxgraph.basic.star" vertex="1" parent="ulDUIKMdiSjUYoQUl0aS-181">
          <mxGeometry width="34.44976076555023" height="30" as="geometry" />
        </mxCell>
        <mxCell id="ulDUIKMdiSjUYoQUl0aS-183" value="" style="verticalLabelPosition=bottom;verticalAlign=top;html=1;shape=mxgraph.basic.star" vertex="1" parent="ulDUIKMdiSjUYoQUl0aS-181">
          <mxGeometry x="109.55023923444975" width="34.44976076555023" height="30" as="geometry" />
        </mxCell>
        <mxCell id="ulDUIKMdiSjUYoQUl0aS-184" value="" style="verticalLabelPosition=bottom;verticalAlign=top;html=1;shape=mxgraph.basic.star" vertex="1" parent="ulDUIKMdiSjUYoQUl0aS-181">
          <mxGeometry x="73.0334928229665" width="34.44976076555023" height="30" as="geometry" />
        </mxCell>
        <mxCell id="ulDUIKMdiSjUYoQUl0aS-185" value="" style="verticalLabelPosition=bottom;verticalAlign=top;html=1;shape=mxgraph.basic.star" vertex="1" parent="ulDUIKMdiSjUYoQUl0aS-181">
          <mxGeometry x="36.51674641148325" width="34.44976076555023" height="30" as="geometry" />
        </mxCell>
        <mxCell id="ulDUIKMdiSjUYoQUl0aS-186" value="" style="verticalLabelPosition=bottom;verticalAlign=top;html=1;shape=mxgraph.basic.star" vertex="1" parent="ulDUIKMdiSjUYoQUl0aS-181">
          <mxGeometry x="145.55023923444972" width="34.44976076555023" height="30" as="geometry" />
        </mxCell>
        <mxCell id="ulDUIKMdiSjUYoQUl0aS-187" value="" style="verticalLabelPosition=bottom;shadow=0;dashed=0;align=center;html=1;verticalAlign=top;strokeWidth=1;shape=mxgraph.mockup.containers.userFemale;strokeColor=#666666;strokeColor2=#008cff;" vertex="1" parent="ulDUIKMdiSjUYoQUl0aS-8">
          <mxGeometry x="110.5" y="1857" width="81" height="70" as="geometry" />
        </mxCell>
        <mxCell id="ulDUIKMdiSjUYoQUl0aS-188" value="" style="verticalLabelPosition=bottom;shadow=0;dashed=0;align=center;html=1;verticalAlign=top;strokeWidth=1;shape=mxgraph.mockup.containers.userFemale;strokeColor=#666666;strokeColor2=#008cff;" vertex="1" parent="ulDUIKMdiSjUYoQUl0aS-8">
          <mxGeometry x="420" y="1857" width="80" height="70" as="geometry" />
        </mxCell>
        <mxCell id="ulDUIKMdiSjUYoQUl0aS-189" value="" style="verticalLabelPosition=bottom;shadow=0;dashed=0;align=center;html=1;verticalAlign=top;strokeWidth=1;shape=mxgraph.mockup.forms.splitter;strokeColor=#999999;" vertex="1" parent="ulDUIKMdiSjUYoQUl0aS-8">
          <mxGeometry y="1975" width="602" height="10" as="geometry" />
        </mxCell>
        <mxCell id="ulDUIKMdiSjUYoQUl0aS-190" value="&lt;font style=&quot;font-size: 25px;&quot;&gt;&lt;i&gt;&lt;b&gt;&lt;span&gt;Book Your Services Today!&lt;/span&gt;&lt;/b&gt;&lt;/i&gt;&lt;/font&gt;" style="text;html=1;align=center;verticalAlign=middle;whiteSpace=wrap;rounded=0;fontStyle=0" vertex="1" parent="ulDUIKMdiSjUYoQUl0aS-8">
          <mxGeometry x="91" y="2025" width="420" height="50" as="geometry" />
        </mxCell>
        <mxCell id="ulDUIKMdiSjUYoQUl0aS-274" value="&lt;div&gt;&lt;u&gt;Spa Hours:&lt;/u&gt;&lt;/div&gt;&lt;div&gt;&lt;/div&gt;" style="text;html=1;align=left;verticalAlign=middle;whiteSpace=wrap;rounded=0;fontSize=17;fontStyle=2" vertex="1" parent="ulDUIKMdiSjUYoQUl0aS-8">
          <mxGeometry x="100" y="2090" width="130" height="66" as="geometry" />
        </mxCell>
        <mxCell id="ulDUIKMdiSjUYoQUl0aS-275" value="&#xa;&lt;div style=&quot;forced-color-adjust: none; color: rgb(0, 0, 0); font-family: Helvetica; font-size: 17px; font-style: italic; font-variant-ligatures: normal; font-variant-caps: normal; font-weight: 400; letter-spacing: normal; orphans: 2; text-align: left; text-indent: 0px; text-transform: none; widows: 2; word-spacing: 0px; -webkit-text-stroke-width: 0px; white-space: normal; background-color: rgb(236, 236, 236); text-decoration-thickness: initial; text-decoration-style: initial; text-decoration-color: initial;&quot;&gt;Monday - Friday&amp;nbsp;&lt;span style=&quot;forced-color-adjust: none; white-space: pre;&quot;&gt;&lt;span style=&quot;white-space: pre;&quot;&gt;&amp;nbsp;&amp;nbsp;&amp;nbsp;&amp;nbsp;&lt;/span&gt;&lt;/span&gt;&lt;span style=&quot;forced-color-adjust: none; white-space: pre;&quot;&gt;&lt;span style=&quot;white-space: pre;&quot;&gt;&amp;nbsp;&amp;nbsp;&amp;nbsp;&amp;nbsp;&lt;/span&gt;&lt;/span&gt;Saturday &amp;amp; Sunday&amp;nbsp;&lt;/div&gt;&lt;div style=&quot;forced-color-adjust: none; color: rgb(0, 0, 0); font-family: Helvetica; font-size: 17px; font-style: italic; font-variant-ligatures: normal; font-variant-caps: normal; font-weight: 400; letter-spacing: normal; orphans: 2; text-align: left; text-indent: 0px; text-transform: none; widows: 2; word-spacing: 0px; -webkit-text-stroke-width: 0px; white-space: normal; background-color: rgb(236, 236, 236); text-decoration-thickness: initial; text-decoration-style: initial; text-decoration-color: initial;&quot;&gt;11:00am - 7:00pm&lt;span style=&quot;forced-color-adjust: none; white-space: pre;&quot;&gt;&lt;span style=&quot;white-space: pre;&quot;&gt;&amp;nbsp;&amp;nbsp;&amp;nbsp;&amp;nbsp;&lt;/span&gt;&lt;/span&gt;&lt;span style=&quot;forced-color-adjust: none; white-space: pre;&quot;&gt;&lt;span style=&quot;white-space: pre;&quot;&gt;&amp;nbsp;&amp;nbsp;&amp;nbsp;&amp;nbsp;&lt;/span&gt;&lt;/span&gt;&lt;span style=&quot;forced-color-adjust: none; white-space: pre;&quot;&gt;&lt;span style=&quot;white-space: pre;&quot;&gt;&amp;nbsp;&amp;nbsp;&amp;nbsp;&amp;nbsp;&lt;/span&gt;&lt;/span&gt;10:00am - 7:00pm&lt;/div&gt;&#xa;&#xa;" style="text;html=1;align=center;verticalAlign=middle;whiteSpace=wrap;rounded=0;" vertex="1" parent="ulDUIKMdiSjUYoQUl0aS-8">
          <mxGeometry x="170" y="2080" width="401.5" height="105" as="geometry" />
        </mxCell>
        <mxCell id="ulDUIKMdiSjUYoQUl0aS-277" value="" style="rounded=0;whiteSpace=wrap;html=1;" vertex="1" parent="ulDUIKMdiSjUYoQUl0aS-8">
          <mxGeometry x="48.5" y="2200" width="505" height="40" as="geometry" />
        </mxCell>
        <mxCell id="ulDUIKMdiSjUYoQUl0aS-278" value="" style="rounded=0;whiteSpace=wrap;html=1;" vertex="1" parent="ulDUIKMdiSjUYoQUl0aS-8">
          <mxGeometry x="46.5" y="2270" width="505" height="40" as="geometry" />
        </mxCell>
        <mxCell id="ulDUIKMdiSjUYoQUl0aS-279" value="" style="rounded=0;whiteSpace=wrap;html=1;" vertex="1" parent="ulDUIKMdiSjUYoQUl0aS-8">
          <mxGeometry x="44" y="2340" width="505" height="40" as="geometry" />
        </mxCell>
        <mxCell id="ulDUIKMdiSjUYoQUl0aS-280" value="" style="rounded=0;whiteSpace=wrap;html=1;" vertex="1" parent="ulDUIKMdiSjUYoQUl0aS-8">
          <mxGeometry x="44" y="2410" width="505" height="40" as="geometry" />
        </mxCell>
        <mxCell id="ulDUIKMdiSjUYoQUl0aS-283" value="&lt;font style=&quot;font-size: 17px;&quot;&gt;Full Name&lt;/font&gt;" style="text;html=1;align=center;verticalAlign=middle;whiteSpace=wrap;rounded=0;" vertex="1" parent="ulDUIKMdiSjUYoQUl0aS-8">
          <mxGeometry x="89" y="2205" width="410" height="30" as="geometry" />
        </mxCell>
        <mxCell id="ulDUIKMdiSjUYoQUl0aS-284" value="&lt;font style=&quot;font-size: 17px;&quot;&gt;Services&lt;/font&gt;" style="text;html=1;align=center;verticalAlign=middle;whiteSpace=wrap;rounded=0;" vertex="1" parent="ulDUIKMdiSjUYoQUl0aS-8">
          <mxGeometry x="95" y="2345" width="410" height="30" as="geometry" />
        </mxCell>
        <mxCell id="ulDUIKMdiSjUYoQUl0aS-285" value="&lt;font style=&quot;font-size: 17px;&quot;&gt;Email&lt;/font&gt;" style="text;html=1;align=center;verticalAlign=middle;whiteSpace=wrap;rounded=0;" vertex="1" parent="ulDUIKMdiSjUYoQUl0aS-8">
          <mxGeometry x="96" y="2275" width="410" height="30" as="geometry" />
        </mxCell>
        <mxCell id="ulDUIKMdiSjUYoQUl0aS-286" value="&lt;font style=&quot;font-size: 17px;&quot;&gt;Date (drop down calendar)&lt;/font&gt;" style="text;html=1;align=center;verticalAlign=middle;whiteSpace=wrap;rounded=0;" vertex="1" parent="ulDUIKMdiSjUYoQUl0aS-8">
          <mxGeometry x="94" y="2415" width="410" height="30" as="geometry" />
        </mxCell>
        <mxCell id="ulDUIKMdiSjUYoQUl0aS-287" value="" style="rounded=0;whiteSpace=wrap;html=1;" vertex="1" parent="ulDUIKMdiSjUYoQUl0aS-8">
          <mxGeometry x="41.5" y="2480" width="505" height="40" as="geometry" />
        </mxCell>
        <mxCell id="ulDUIKMdiSjUYoQUl0aS-288" value="&lt;span style=&quot;font-size: 17px;&quot;&gt;Time Selector(Drop down)&lt;/span&gt;" style="text;html=1;align=center;verticalAlign=middle;whiteSpace=wrap;rounded=0;" vertex="1" parent="ulDUIKMdiSjUYoQUl0aS-8">
          <mxGeometry x="91.5" y="2485" width="410" height="30" as="geometry" />
        </mxCell>
        <mxCell id="ulDUIKMdiSjUYoQUl0aS-289" value="Submit" style="strokeWidth=1;shadow=0;dashed=0;align=center;html=1;shape=mxgraph.mockup.buttons.button;strokeColor=#666666;fontColor=#ffffff;mainText=;buttonStyle=round;fontSize=17;fontStyle=1;fillColor=#008cff;whiteSpace=wrap;" vertex="1" parent="ulDUIKMdiSjUYoQUl0aS-8">
          <mxGeometry x="226" y="2575" width="150" height="35" as="geometry" />
        </mxCell>
      </root>
    </mxGraphModel>
  </diagram>
</mxfile>
